<?xml version="1.0" standalone="no"?>
<!DOCTYPE svg PUBLIC "-//W3C//DTD SVG 20010904//EN"
 "http://www.w3.org/TR/2001/REC-SVG-20010904/DTD/svg10.dtd">
<svg version="1.0" xmlns="http://www.w3.org/2000/svg"
 width="512.000000pt" height="512.000000pt" viewBox="0 0 512.000000 512.000000"
 preserveAspectRatio="xMidYMid meet">
<metadata>
Created by potrace 1.11, written by Peter Selinger 2001-2013
</metadata>
<g transform="translate(0.000000,512.000000) scale(0.100000,-0.100000)"
fill="#000000" stroke="none">
<path d="M4787 4568 c-13 -145 -66 -257 -172 -364 -39 -39 -101 -89 -140 -111
-147 -85 -375 -156 -600 -188 -91 -12 -752 -55 -862 -55 l-33 0 0 -1249 c0
-1058 2 -1261 15 -1326 34 -177 112 -272 257 -311 63 -16 227 -18 296 -3 43 9
49 13 44 31 -4 16 -10 19 -36 14 -187 -38 -368 2 -436 95 -78 108 -90 222 -90
867 l0 472 305 0 c182 0 324 -4 355 -11 99 -21 170 -104 204 -239 13 -54 28
-68 53 -52 10 6 9 22 -2 70 -26 112 -85 200 -159 239 l-30 15 38 13 c97 34
156 106 156 192 0 57 -17 113 -33 113 -30 -1 -37 -16 -26 -49 15 -41 7 -110
-16 -145 -27 -40 -104 -75 -193 -87 -42 -5 -205 -8 -362 -7 l-285 3 -3 653
c-1 358 -1 652 0 652 49 7 506 29 588 29 203 1 337 -44 441 -148 90 -90 128
-230 96 -351 -14 -49 -14 -55 1 -66 13 -10 19 -9 28 4 26 38 36 97 32 177 -4
68 -10 95 -36 148 -63 127 -187 221 -332 250 l-65 13 100 7 c320 21 679 176
820 354 82 104 135 252 135 378 0 41 -2 45 -24 45 -21 0 -23 -5 -29 -72z"/>
<path d="M2325 4176 c-5 -3 -27 -7 -47 -11 -29 -4 -38 -11 -38 -25 0 -23 4
-23 104 -9 149 20 306 -23 368 -101 35 -44 65 -129 78 -217 14 -97 13 -2398
-1 -2499 -23 -165 -88 -262 -200 -299 -59 -20 -205 -26 -296 -12 -49 7 -53 6
-53 -12 0 -30 83 -45 222 -39 101 4 121 8 178 35 128 60 183 150 209 346 7 52
11 474 11 1235 0 1239 -1 1267 -50 1396 -31 82 -105 156 -185 186 -46 17 -87
23 -175 26 -63 2 -119 2 -125 0z"/>
<path d="M1044 3894 c-101 -60 -198 -141 -301 -248 -119 -123 -180 -207 -230
-313 -35 -72 -37 -85 -38 -173 0 -87 2 -99 30 -149 54 -98 138 -167 321 -263
115 -60 239 -115 408 -179 276 -105 439 -186 516 -255 55 -50 83 -122 78 -200
-4 -70 -14 -89 -30 -59 -21 40 -137 141 -214 187 -105 61 -325 162 -557 254
-343 136 -446 197 -535 320 -46 63 -47 63 -66 45 -18 -19 -18 -20 12 -62 94
-135 232 -217 627 -374 429 -169 615 -278 684 -398 41 -74 54 -148 41 -232
-41 -256 -281 -615 -514 -767 l-61 -40 -140 6 c-222 10 -443 62 -549 130 -70
44 -131 116 -157 185 -32 80 -32 233 -1 312 27 69 81 133 136 162 63 33 182
31 254 -6 59 -31 106 -89 123 -150 10 -37 14 -137 7 -166 -2 -7 7 -17 19 -22
20 -7 24 -4 30 19 17 59 8 165 -19 222 -54 117 -148 174 -288 174 -77 1 -92
-2 -152 -32 -138 -68 -214 -239 -188 -425 40 -283 302 -432 796 -454 l142 -6
60 37 c156 94 354 330 466 553 74 147 89 202 92 334 2 84 7 127 20 155 26 60
25 188 -3 239 -64 117 -189 191 -588 350 -459 182 -657 304 -723 444 -44 96
-22 225 64 363 81 130 269 315 421 415 l82 53 111 -10 c196 -18 344 -59 520
-142 97 -45 106 -48 117 -31 16 21 15 23 -83 72 -157 79 -370 137 -537 147
-50 3 -104 7 -118 9 -18 3 -46 -8 -85 -31z"/>
</g>
</svg>
